<?xml version="1.0" encoding="utf-8"?>
<!-- Generator: Adobe Illustrator 27.5.0, SVG Export Plug-In . SVG Version: 6.00 Build 0)  -->
<svg version="1.1" xmlns="http://www.w3.org/2000/svg" xmlns:xlink="http://www.w3.org/1999/xlink" x="0px" y="0px"
	 viewBox="0 0 1250 1250" style="enable-background:new 0 0 1250 1250;" xml:space="preserve">
<style type="text/css">
	.st0{display:none;}
	.st1{display:inline;opacity:0.3;}
	.st2{fill:#677F87;}
	.st3{display:inline;opacity:0.3;fill:#677F87;}
	.st4{display:inline;}
	.st5{fill:#FFFFFF;}
	.st6{fill:#E40428;}
</style>
<g id="Schutzzone" class="st0">
	<g class="st1">
		<path class="st2" d="M278.59,483.51c0.16,0.16,0.37,0.25,0.6,0.25h28.83c0.22,0,0.44-0.09,0.6-0.25l31.71-31.71
			c0.24-0.24,0.31-0.6,0.18-0.92c-0.13-0.32-0.44-0.52-0.78-0.52h-92.24c-0.34,0-0.65,0.2-0.78,0.52c-0.13,0.32-0.06,0.68,0.18,0.92
			L278.59,483.51z"/>
		<path class="st2" d="M308.61,533.69c-0.16-0.16-0.37-0.25-0.6-0.25h-28.83c-0.22,0-0.44,0.09-0.6,0.25l-31.71,31.71
			c-0.24,0.24-0.31,0.6-0.18,0.92c0.13,0.32,0.44,0.52,0.78,0.52h92.24c0.34,0,0.65-0.2,0.78-0.52c0.13-0.32,0.06-0.68-0.18-0.92
			L308.61,533.69z"/>
		<path class="st2" d="M268.76,523.02v-28.83c0-0.23-0.09-0.44-0.25-0.6l-31.71-31.7c-0.24-0.24-0.6-0.31-0.92-0.18
			c-0.31,0.13-0.52,0.44-0.52,0.78v92.24c0,0.34,0.21,0.65,0.52,0.78c0.11,0.04,0.21,0.07,0.32,0.07c0.22,0,0.44-0.09,0.6-0.25
			l31.71-31.71C268.67,523.45,268.76,523.24,268.76,523.02"/>
	</g>
	<g class="st1">
		<path class="st2" d="M1057.86,599.98c0.16,0.16,0.37,0.25,0.6,0.25h28.83c0.22,0,0.44-0.09,0.6-0.25l31.71-31.71
			c0.24-0.24,0.31-0.6,0.18-0.92c-0.13-0.32-0.44-0.52-0.78-0.52l-92.24,0c-0.34,0-0.65,0.2-0.78,0.52
			c-0.13,0.32-0.06,0.68,0.18,0.92L1057.86,599.98z"/>
		<path class="st2" d="M1087.88,650.16c-0.16-0.16-0.37-0.25-0.6-0.25h-28.83c-0.22,0-0.44,0.09-0.6,0.25l-31.71,31.71
			c-0.24,0.24-0.31,0.6-0.18,0.92c0.13,0.32,0.44,0.52,0.78,0.52l92.24,0c0.34,0,0.65-0.2,0.78-0.52c0.13-0.32,0.06-0.68-0.18-0.92
			L1087.88,650.16z"/>
		<path class="st2" d="M1048.03,639.49v-28.83c0-0.23-0.09-0.44-0.25-0.6l-31.71-31.7c-0.24-0.24-0.6-0.31-0.92-0.18
			c-0.31,0.13-0.52,0.44-0.52,0.78l0,92.24c0,0.34,0.21,0.65,0.52,0.78c0.11,0.04,0.21,0.07,0.32,0.07c0.22,0,0.44-0.09,0.6-0.25
			l31.71-31.71C1047.94,639.93,1048.03,639.71,1048.03,639.49"/>
	</g>
</g>
<g id="Abstände" class="st0">
	<rect x="938.78" y="450.37" class="st3" width="14.17" height="349.16"/>
	<rect x="834.89" y="450.37" class="st3" width="14.17" height="349.16"/>
	<rect x="730.79" y="450.37" class="st3" width="14.17" height="349.16"/>
	<rect x="631.55" y="450.37" class="st3" width="14.17" height="349.16"/>
	<rect x="527.45" y="450.37" class="st3" width="14.17" height="349.16"/>
	<rect x="479.86" y="450.62" class="st3" width="14.17" height="349.16"/>
	<rect x="340.56" y="450.37" class="st3" width="56.69" height="349.41"/>
</g>
<g id="Logo_Schwarz" class="st0">
	<g class="st4">
		<g>
			<path d="M699.3,566.84v26.82h-36.91c-9.2,0-16.66,7.7-16.67,16.9v0v-0.24v16.9v22.76v16.66v0v0c0,9.18,7.44,16.63,16.61,16.66
				c0.02,0,0.04,0,0.05,0h68.41v-33.33v-22.76v-33.33v-27.06H699.3z M699.3,619.46v38.1h-18.7c-2.37,0-4.3-1.93-4.3-4.3v-29.49
				c0-2.38,1.93-4.31,4.31-4.31H699.3z"/>
			<path d="M631.54,610.12c-0.13-9.11-7.55-16.46-16.7-16.46h-73.2h-0.01v89.65h33.43v-63.84h18.75c2.38,0,4.31,1.93,4.31,4.31
				v59.53h33.43v-72.95C631.55,610.28,631.54,610.2,631.54,610.12"/>
			<path d="M834.88,610.12c-0.13-9.11-7.55-16.46-16.7-16.46h-73.2h-0.01v89.65h33.43v-63.84h18.75c2.38,0,4.31,1.93,4.31,4.31
				v59.53h33.43v-72.95C834.89,610.28,834.88,610.2,834.88,610.12"/>
			<path d="M1014.64,621.88H990.7c-2.38,0-4.31,1.93-4.31,4.31v57.11h-33.43v-72.94c0-0.08,0.01-0.16,0.01-0.25
				c0.13-9.11,7.55-16.46,16.7-16.46h44.97"/>
			<path d="M479.86,655.19H435c-2.38,0-4.31-1.93-4.31-4.31v-84.05h-33.43v99.76c0,0.08,0.01,0.16,0.01,0.25
				c0.13,9.11,7.55,16.46,16.7,16.46h65.89"/>
			<g>
				<rect x="494.03" y="593.65" width="33.42" height="89.65"/>
				<rect x="494.03" y="566.84" width="33.42" height="14.07"/>
			</g>
			<path d="M938.78,643.24v-32.86c0-9.23-7.49-16.72-16.72-16.72h-56.27c-9.24,0-16.72,7.49-16.72,16.72v56.21
				c0,9.23,7.49,16.72,16.72,16.72h73v-25.7h-54.73c-2.38,0-4.31-1.93-4.31-4.31v-10.06H938.78z M884.06,614.95h23.4
				c2.39,0,4.33,1.94,4.33,4.33v9.59h-32.04v-9.61C879.74,616.88,881.67,614.95,884.06,614.95"/>
		</g>
		<g>
			<path d="M278.59,599.98c0.16,0.16,0.37,0.25,0.6,0.25h28.83c0.22,0,0.44-0.09,0.6-0.25l31.71-31.71c0.24-0.24,0.31-0.6,0.18-0.92
				c-0.13-0.32-0.44-0.52-0.78-0.52h-92.24c-0.34,0-0.65,0.2-0.78,0.52c-0.13,0.32-0.06,0.68,0.18,0.92L278.59,599.98z"/>
			<path d="M308.61,650.16c-0.16-0.16-0.37-0.25-0.6-0.25h-28.83c-0.22,0-0.44,0.09-0.6,0.25l-31.71,31.71
				c-0.24,0.24-0.31,0.6-0.18,0.92c0.13,0.32,0.44,0.52,0.78,0.52h92.24c0.34,0,0.65-0.2,0.78-0.52c0.13-0.32,0.06-0.68-0.18-0.92
				L308.61,650.16z"/>
			<path d="M268.76,639.49v-28.83c0-0.23-0.09-0.44-0.25-0.6l-31.71-31.7c-0.24-0.24-0.6-0.31-0.92-0.18
				c-0.31,0.13-0.52,0.44-0.52,0.78v92.24c0,0.34,0.21,0.65,0.52,0.78c0.11,0.04,0.21,0.07,0.32,0.07c0.22,0,0.44-0.09,0.6-0.25
				l31.71-31.71C268.67,639.93,268.76,639.71,268.76,639.49"/>
		</g>
	</g>
</g>
<g id="Logo_Weiss" class="st0">
	<g class="st4">
		<g>
			<path class="st5" d="M699.3,566.84v26.82h-36.91c-9.2,0-16.66,7.7-16.67,16.9v0v-0.24v16.9v22.76v16.66v0v0
				c0,9.18,7.44,16.63,16.61,16.66c0.02,0,0.04,0,0.05,0h68.41v-33.33v-22.76v-33.33v-27.06H699.3z M699.3,619.46v38.1h-18.7
				c-2.37,0-4.3-1.93-4.3-4.3v-29.49c0-2.38,1.93-4.31,4.31-4.31H699.3z"/>
			<path class="st5" d="M631.54,610.12c-0.13-9.11-7.55-16.46-16.7-16.46h-73.2h-0.01v89.65h33.43v-63.84h18.75
				c2.38,0,4.31,1.93,4.31,4.31v59.53h33.43v-72.95C631.55,610.28,631.54,610.2,631.54,610.12"/>
			<path class="st5" d="M834.88,610.12c-0.13-9.11-7.55-16.46-16.7-16.46h-73.2h-0.01v89.65h33.43v-63.84h18.75
				c2.38,0,4.31,1.93,4.31,4.31v59.53h33.43v-72.95C834.89,610.28,834.88,610.2,834.88,610.12"/>
			<path class="st5" d="M1014.64,621.88H990.7c-2.38,0-4.31,1.93-4.31,4.31v57.11h-33.43v-72.94c0-0.08,0.01-0.16,0.01-0.25
				c0.13-9.11,7.55-16.46,16.7-16.46h44.97"/>
			<path class="st5" d="M479.86,655.19H435c-2.38,0-4.31-1.93-4.31-4.31v-84.05h-33.43v99.76c0,0.08,0.01,0.16,0.01,0.25
				c0.13,9.11,7.55,16.46,16.7,16.46h65.89"/>
			<g>
				<rect x="494.03" y="593.65" class="st5" width="33.42" height="89.65"/>
				<rect x="494.03" y="566.84" class="st5" width="33.42" height="14.07"/>
			</g>
			<path class="st5" d="M938.78,643.24v-32.86c0-9.23-7.49-16.72-16.72-16.72h-56.27c-9.24,0-16.72,7.49-16.72,16.72v56.21
				c0,9.23,7.49,16.72,16.72,16.72h73v-25.7h-54.73c-2.38,0-4.31-1.93-4.31-4.31v-10.06H938.78z M884.06,614.95h23.4
				c2.39,0,4.33,1.94,4.33,4.33v9.59h-32.04v-9.61C879.74,616.88,881.67,614.95,884.06,614.95"/>
		</g>
		<g>
			<path class="st5" d="M278.59,599.98c0.16,0.16,0.37,0.25,0.6,0.25h28.83c0.22,0,0.44-0.09,0.6-0.25l31.71-31.71
				c0.24-0.24,0.31-0.6,0.18-0.92c-0.13-0.32-0.44-0.52-0.78-0.52h-92.24c-0.34,0-0.65,0.2-0.78,0.52
				c-0.13,0.32-0.06,0.68,0.18,0.92L278.59,599.98z"/>
			<path class="st5" d="M308.61,650.16c-0.16-0.16-0.37-0.25-0.6-0.25h-28.83c-0.22,0-0.44,0.09-0.6,0.25l-31.71,31.71
				c-0.24,0.24-0.31,0.6-0.18,0.92c0.13,0.32,0.44,0.52,0.78,0.52h92.24c0.34,0,0.65-0.2,0.78-0.52c0.13-0.32,0.06-0.68-0.18-0.92
				L308.61,650.16z"/>
			<path class="st5" d="M268.76,639.49v-28.83c0-0.23-0.09-0.44-0.25-0.6l-31.71-31.7c-0.24-0.24-0.6-0.31-0.92-0.18
				c-0.31,0.13-0.52,0.44-0.52,0.78v92.24c0,0.34,0.21,0.65,0.52,0.78c0.11,0.04,0.21,0.07,0.32,0.07c0.22,0,0.44-0.09,0.6-0.25
				l31.71-31.71C268.67,639.93,268.76,639.71,268.76,639.49"/>
		</g>
	</g>
</g>
<g id="Logo_Grau" class="st0">
	<g class="st4">
		<g>
			<path class="st2" d="M699.3,566.84v26.82h-36.91c-9.2,0-16.66,7.7-16.67,16.9v0v-0.24v16.9v22.76v16.66v0v0
				c0,9.18,7.44,16.63,16.61,16.66c0.02,0,0.04,0,0.05,0h68.41v-33.33v-22.76v-33.33v-27.06H699.3z M699.3,619.46v38.1h-18.7
				c-2.37,0-4.3-1.93-4.3-4.3v-29.49c0-2.38,1.93-4.31,4.31-4.31H699.3z"/>
			<path class="st2" d="M631.54,610.12c-0.13-9.11-7.55-16.46-16.7-16.46h-73.2h-0.01v89.65h33.43v-63.84h18.75
				c2.38,0,4.31,1.93,4.31,4.31v59.53h33.43v-72.95C631.55,610.28,631.54,610.2,631.54,610.12"/>
			<path class="st2" d="M834.88,610.12c-0.13-9.11-7.55-16.46-16.7-16.46h-73.2h-0.01v89.65h33.43v-63.84h18.75
				c2.38,0,4.31,1.93,4.31,4.31v59.53h33.43v-72.95C834.89,610.28,834.88,610.2,834.88,610.12"/>
			<path class="st2" d="M1014.64,621.88H990.7c-2.38,0-4.31,1.93-4.31,4.31v57.11h-33.43v-72.94c0-0.08,0.01-0.16,0.01-0.25
				c0.13-9.11,7.55-16.46,16.7-16.46h44.97"/>
			<path class="st2" d="M479.86,655.19H435c-2.38,0-4.31-1.93-4.31-4.31v-84.05h-33.43v99.76c0,0.08,0.01,0.16,0.01,0.25
				c0.13,9.11,7.55,16.46,16.7,16.46h65.89"/>
			<g>
				<rect x="494.03" y="593.65" class="st2" width="33.42" height="89.65"/>
				<rect x="494.03" y="566.84" class="st2" width="33.42" height="14.07"/>
			</g>
			<path class="st2" d="M938.78,643.24v-32.86c0-9.23-7.49-16.72-16.72-16.72h-56.27c-9.24,0-16.72,7.49-16.72,16.72v56.21
				c0,9.23,7.49,16.72,16.72,16.72h73v-25.7h-54.73c-2.38,0-4.31-1.93-4.31-4.31v-10.06H938.78z M884.06,614.95h23.4
				c2.39,0,4.33,1.94,4.33,4.33v9.59h-32.04v-9.61C879.74,616.88,881.67,614.95,884.06,614.95"/>
		</g>
		<g>
			<path class="st2" d="M278.59,599.98c0.16,0.16,0.37,0.25,0.6,0.25h28.83c0.22,0,0.44-0.09,0.6-0.25l31.71-31.71
				c0.24-0.24,0.31-0.6,0.18-0.92c-0.13-0.32-0.44-0.52-0.78-0.52h-92.24c-0.34,0-0.65,0.2-0.78,0.52
				c-0.13,0.32-0.06,0.68,0.18,0.92L278.59,599.98z"/>
			<path class="st2" d="M308.61,650.16c-0.16-0.16-0.37-0.25-0.6-0.25h-28.83c-0.22,0-0.44,0.09-0.6,0.25l-31.71,31.71
				c-0.24,0.24-0.31,0.6-0.18,0.92c0.13,0.32,0.44,0.52,0.78,0.52h92.24c0.34,0,0.65-0.2,0.78-0.52c0.13-0.32,0.06-0.68-0.18-0.92
				L308.61,650.16z"/>
			<path class="st2" d="M268.76,639.49v-28.83c0-0.23-0.09-0.44-0.25-0.6l-31.71-31.7c-0.24-0.24-0.6-0.31-0.92-0.18
				c-0.31,0.13-0.52,0.44-0.52,0.78v92.24c0,0.34,0.21,0.65,0.52,0.78c0.11,0.04,0.21,0.07,0.32,0.07c0.22,0,0.44-0.09,0.6-0.25
				l31.71-31.71C268.67,639.93,268.76,639.71,268.76,639.49"/>
		</g>
	</g>
</g>
<g id="Logo_Rot">
	<g>
		<g>
			<path class="st6" d="M699.3,566.76v26.82h-36.91c-9.2,0-16.66,7.7-16.67,16.9v0v-0.24v16.9v22.76v16.66v0v0
				c0,9.18,7.44,16.63,16.61,16.66c0.02,0,0.04,0,0.05,0h68.41v-33.33v-22.76v-33.33v-27.06H699.3z M699.3,619.39v38.1h-18.7
				c-2.37,0-4.3-1.93-4.3-4.3V623.7c0-2.38,1.93-4.31,4.31-4.31H699.3z"/>
			<path class="st6" d="M631.54,610.04c-0.13-9.11-7.55-16.46-16.7-16.46h-73.2h-0.01v89.65h33.43v-63.84h18.75
				c2.38,0,4.31,1.93,4.31,4.31v59.53h33.43v-72.95C631.55,610.21,631.54,610.13,631.54,610.04"/>
			<path class="st6" d="M834.88,610.04c-0.13-9.11-7.55-16.46-16.7-16.46h-73.2h-0.01v89.65h33.43v-63.84h18.75
				c2.38,0,4.31,1.93,4.31,4.31v59.53h33.43v-72.95C834.89,610.21,834.88,610.13,834.88,610.04"/>
			<path class="st6" d="M1014.64,621.81H990.7c-2.38,0-4.31,1.93-4.31,4.31v57.11h-33.43v-72.94c0-0.08,0.01-0.16,0.01-0.25
				c0.13-9.11,7.55-16.46,16.7-16.46h44.97"/>
			<path class="st6" d="M479.86,655.12H435c-2.38,0-4.31-1.93-4.31-4.31v-84.05h-33.43v99.76c0,0.08,0.01,0.16,0.01,0.25
				c0.13,9.11,7.55,16.46,16.7,16.46h65.89"/>
			<g>
				<rect x="494.03" y="593.58" class="st6" width="33.42" height="89.65"/>
				<rect x="494.03" y="566.76" class="st6" width="33.42" height="14.07"/>
			</g>
			<path class="st6" d="M938.78,643.17V610.3c0-9.23-7.49-16.72-16.72-16.72h-56.27c-9.24,0-16.72,7.49-16.72,16.72v56.21
				c0,9.23,7.49,16.72,16.72,16.72h73v-25.7h-54.73c-2.38,0-4.31-1.93-4.31-4.31v-10.06H938.78z M884.06,614.88h23.4
				c2.39,0,4.33,1.94,4.33,4.33v9.59h-32.04v-9.61C879.74,616.81,881.67,614.88,884.06,614.88"/>
		</g>
		<g>
			<path class="st6" d="M278.59,599.91c0.16,0.16,0.37,0.25,0.6,0.25h28.83c0.22,0,0.44-0.09,0.6-0.25l31.71-31.71
				c0.24-0.24,0.31-0.6,0.18-0.92c-0.13-0.32-0.44-0.52-0.78-0.52h-92.24c-0.34,0-0.65,0.2-0.78,0.52
				c-0.13,0.32-0.06,0.68,0.18,0.92L278.59,599.91z"/>
			<path class="st6" d="M308.61,650.09c-0.16-0.16-0.37-0.25-0.6-0.25h-28.83c-0.22,0-0.44,0.09-0.6,0.25l-31.71,31.71
				c-0.24,0.24-0.31,0.6-0.18,0.92s0.44,0.52,0.78,0.52h92.24c0.34,0,0.65-0.2,0.78-0.52c0.13-0.32,0.06-0.68-0.18-0.92
				L308.61,650.09z"/>
			<path class="st6" d="M268.76,639.41v-28.83c0-0.23-0.09-0.44-0.25-0.6l-31.71-31.7c-0.24-0.24-0.6-0.31-0.92-0.18
				c-0.31,0.13-0.52,0.44-0.52,0.78v92.24c0,0.34,0.21,0.65,0.52,0.78c0.11,0.04,0.21,0.07,0.32,0.07c0.22,0,0.44-0.09,0.6-0.25
				l31.71-31.71C268.67,639.85,268.76,639.64,268.76,639.41"/>
		</g>
	</g>
</g>
</svg>
